<svg xmlns="http://www.w3.org/2000/svg" height="128" viewBox="0 0 40 40">
	<defs>
		<path id="dollar" d="m4 8h4v4h4v4h-8v2h6v2h2v6h-2v2h-2v4h-4v-4h-4v-4h8v-2h-6v-2h-2v-6h2v-2h2v-4z"/>
		<path id="five" d="m0 8h12v4h-8v4h6v2h2v10h-2v2h-10v-4h8v-6h-8v-12z"/>
	</defs>
	<g fill="rgba(0,0,0,0.3)">
		<g transform="translate(7,2)">
			<use href="#dollar" x="0"/>
			<use href="#five" x="14"/>
		</g>
	</g>
	<g>
		<g fill="#F3B958FF" transform="translate(5,0)">
			<use href="#dollar" x="0"/>
			<use href="#five" x="14"/>
		</g>
	</g>
	<text font-family="m6x11plus,Courier New" fill="transparent">
		<tspan font-size="32" lengthAdjust="spacingAndGlyphs" x="4" y="28" textLength="1">{C:money}</tspan><tspan font-size="32" lengthAdjust="spacingAndGlyphs" x="5" y="28" textLength="28">$5</tspan><tspan font-size="32" lengthAdjust="spacingAndGlyphs" x="32" y="28" textLength="1">{}</tspan>
	</text>
</svg>