<svg xmlns="http://www.w3.org/2000/svg" height="128" viewBox="0 0 131 44">
	<defs>
		<path id="period" d="m0 26h4v4h-4v-4z"/>
		<path id="zero" d="m2 8h8v2h2v18h-2v2h-8v-2h-2v-18h2v-2zm2 4v14h4v-14h-4z"/>
		<path id="one" d="m4 8h4v18h4v4h-12v-4h4v-12h-4v-4h4v-2z"/>
		<path id="eight" d="m2 8h8v2h2v6h-2v2h2v10h-2v2h-8v-2h-2v-10h2v-2h-2v-6h2v-2zm2 4v4h4v-4h-4zm0 8v6h4v-6h-4z"/>
	</defs>
	<g fill="rgba(0,0,0,0.3)">
		<g transform="translate(6.6,7.6) scale(0.8)">
			<use href="#zero" x="0"/>
			<use href="#period" x="14"/>
			<use href="#eight" x="20"/>
		</g>
		<g transform="translate(43.8,4)">
			<use href="#one" x="0"/>
			<use href="#period" x="14"/>
			<use href="#zero" x="20"/>
		</g>
		<g transform="translate(90,2.2) scale(1.1)">
			<use href="#one" x="0"/>
			<use href="#period" x="14"/>
			<use href="#one" x="20"/>
		</g>
	</g>
	<g>
		<g fill="#4F6367FF" transform="translate(5,6) scale(0.8)">
			<use href="#zero" x="0"/>
			<use href="#period" x="14"/>
			<use href="#eight" x="20"/>
		</g>
		<g fill="#4F6367FF" transform="translate(41.8,2)">
			<use href="#one" x="0"/>
			<use href="#period" x="14"/>
			<use href="#zero" x="20"/>
		</g>
		<g fill="#4F6367FF" transform="translate(87.8,0) scale(1.1)">
			<use href="#one" x="0"/>
			<use href="#period" x="14"/>
			<use href="#one" x="20"/>
		</g>
	</g>
	<text font-family="m6x11plus,Courier New" fill="transparent">
		<tspan font-size="25.6" lengthAdjust="spacingAndGlyphs" x="4" y="28.4" textLength="1">{s:0.8}</tspan><tspan font-size="25.6" xml:space="preserve" lengthAdjust="spacingAndGlyphs" x="5" y="28.4" textLength="36.8">0.8 </tspan><tspan font-size="32" lengthAdjust="spacingAndGlyphs" x="40.8" y="30" textLength="1">{s:1}</tspan><tspan font-size="32" xml:space="preserve" lengthAdjust="spacingAndGlyphs" x="41.8" y="30" textLength="46">1.0 </tspan><tspan font-size="35.2" lengthAdjust="spacingAndGlyphs" x="86.8" y="30.8" textLength="1">{s:1.1}</tspan><tspan font-size="35.2" lengthAdjust="spacingAndGlyphs" x="87.8" y="30.8" textLength="37.4">1.1</tspan><tspan font-size="32" lengthAdjust="spacingAndGlyphs" x="124.2" y="30" textLength="1">{}</tspan>
	</text>
</svg>