<svg xmlns="http://www.w3.org/2000/svg" height="128" viewBox="0 0 106 40">
	<defs>
		<path id="S" d="m2 8h10v4h-8v4h6v2h2v10h-2v2h-10v-4h8v-6h-6v-2h-2v-8h2v-2z"/>
		<path id="a" d="m0 14h10v2h2v14h-10v-2h-2v-6h2v-2h6v-2h-8v-4zm4 10v2h4v-2h-4z"/>
		<path id="p" d="m2 14h8v2h2v12h-2v2h-6v6h-4v-20h2v-2zm2 4v8h4v-8h-4z"/>
		<path id="r" d="m0 14h4v2h2v-2h6v4h-6v2h-2v10h-4v-16z"/>
		<path id="s" d="m2 14h10v4h-8v2h6v2h2v6h-2v2h-10v-4h8v-2h-6v-2h-2v-6h2v-2z"/>
		<path id="t" d="m2 8h4v6h6v4h-6v8h6v4h-8v-2h-2v-10h-2v-4h2v-6z"/>
	</defs>
	<g>
		<path d="m8 0.0h40.0l4 4v28.0l-4 4h-40.0l-4-4v-28.0z" fill="#403995FF"/>
		<path d="m56.0 0.0h40.0l4 4v28.0l-4 4h-40.0l-4-4v-28.0z" fill="#F03464FF"/>
	</g>
	<g>
		<g fill="#F03464FF" transform="translate(5,0)">
				<use href="#S" x="3"/>
				<use href="#p" x="17"/>
				<use href="#a" x="31"/>
		</g>
		<g fill="#403995FF" transform="translate(47,0)">
				<use href="#r" x="9"/>
				<use href="#t" x="23"/>
				<use href="#s" x="37"/>
		</g>
	</g>
	<text font-family="m6x11plus,Courier New" fill="transparent">
		<tspan font-size="32" lengthAdjust="spacingAndGlyphs" x="10" y="28" textLength="1">{C:hearts,X:spades}</tspan><tspan font-size="32" lengthAdjust="spacingAndGlyphs" x="11" y="28" textLength="42">Spa</tspan><tspan font-size="32" lengthAdjust="spacingAndGlyphs" x="58" y="28" textLength="1">{C:spades,X:hearts}</tspan><tspan font-size="32" lengthAdjust="spacingAndGlyphs" x="59" y="28" textLength="42">rts</tspan><tspan font-size="32" lengthAdjust="spacingAndGlyphs" x="100" y="28" textLength="1">{}</tspan>
	</text>
</svg>