<svg xmlns="http://www.w3.org/2000/svg" height="128" viewBox="0 0 230 40">
	<defs>
		<path id="parenleft" d="m2 8h6v4h-4v18h4v4h-6v-2h-2v-22h2v-2z"/>
		<path id="parenright" d="m0 8h6v2h2v22h-2v2h-6v-4h4v-18h-4v-4z"/>
		<path id="M" d="m0 8h14v2h2v20h-4v-18h-2v14h-4v-14h-2v18h-4v-22z"/>
		<path id="a" d="m0 14h10v2h2v14h-10v-2h-2v-6h2v-2h6v-2h-8v-4zm4 10v2h4v-2h-4z"/>
		<path id="e" d="m2 14h8v2h2v8h-8v2h8v4h-10v-2h-2v-12h2v-2zm2 4v2h4v-2h-4z"/>
		<path id="h" d="m0 8h4v6h6v2h2v14h-4v-12h-4v12h-4v-22z"/>
		<path id="m" d="m0 14h14v2h2v14h-4v-12h-2v12h-4v-12h-2v12h-4v-16z"/>
		<path id="o" d="m2 14h8v2h2v12h-2v2h-8v-2h-2v-12h2v-2zm2 4v8h4v-8h-4z"/>
		<path id="r" d="m0 14h4v2h2v-2h6v4h-6v2h-2v10h-4v-16z"/>
		<path id="s" d="m2 14h10v4h-8v2h6v2h2v6h-2v2h-10v-4h8v-2h-6v-2h-2v-6h2v-2z"/>
		<path id="t" d="m2 8h4v6h6v4h-6v8h6v4h-8v-2h-2v-10h-2v-4h2v-6z"/>
		<path id="u" d="m0 14h4v12h4v-12h4v14h-2v2h-8v-2h-2v-14z"/>
		<path id="v" d="m0 14h4v10h4v-10h4v12h-2v2h-2v2h-4v-2h-2v-2h-2v-12z"/>
	</defs>
	<g fill="rgba(0,0,0,0.3)">
		<g transform="translate(7,2)">
			<use href="#parenleft" x="0"/>
			<use href="#M" x="10"/>
			<use href="#u" x="28"/>
			<use href="#s" x="42"/>
			<use href="#t" x="56"/>
			<use href="#h" x="82"/>
			<use href="#a" x="96"/>
			<use href="#v" x="110"/>
			<use href="#e" x="124"/>
			<use href="#r" x="150"/>
			<use href="#o" x="164"/>
			<use href="#o" x="178"/>
			<use href="#m" x="192"/>
			<use href="#parenright" x="210"/>
		</g>
		<g transform="translate(227,2)">
		</g>
	</g>
	<g>
		<g fill="#88888899" transform="translate(5,0)">
				<use href="#parenleft" x="0"/>
				<use href="#M" x="10"/>
				<use href="#u" x="28"/>
				<use href="#s" x="42"/>
				<use href="#t" x="56"/>
				<use href="#h" x="82"/>
				<use href="#a" x="96"/>
				<use href="#v" x="110"/>
				<use href="#e" x="124"/>
				<use href="#r" x="150"/>
				<use href="#o" x="164"/>
				<use href="#o" x="178"/>
				<use href="#m" x="192"/>
				<use href="#parenright" x="210"/>
		</g>
		<g fill="#FFFFFFFF" transform="translate(225,0)">
		</g>
	</g>
	<text font-family="m6x11plus,Courier New" fill="transparent">
		<tspan font-size="32" lengthAdjust="spacingAndGlyphs" x="4" y="28" textLength="1">{C:inactive}</tspan><tspan font-size="32" xml:space="preserve" lengthAdjust="spacingAndGlyphs" x="5" y="28" textLength="220">(Must have room)</tspan><tspan font-size="32" lengthAdjust="spacingAndGlyphs" x="224" y="28" textLength="1">{}</tspan><tspan font-size="32" lengthAdjust="spacingAndGlyphs" x="225" y="28" textLength="0"></tspan>
	</text>
</svg>