<svg xmlns="http://www.w3.org/2000/svg" height="128" viewBox="0 0 146 40">
	<defs>
		<path id="P" d="m0 8h10v2h2v10h-2v2h-6v8h-4v-22zm4 4v6h4v-6h-4z"/>
		<path id="S" d="m2 8h10v4h-8v4h6v2h2v10h-2v2h-10v-4h8v-6h-6v-2h-2v-8h2v-2z"/>
		<path id="a" d="m0 14h10v2h2v14h-10v-2h-2v-6h2v-2h6v-2h-8v-4zm4 10v2h4v-2h-4z"/>
		<path id="e" d="m2 14h8v2h2v8h-8v2h8v4h-10v-2h-2v-12h2v-2zm2 4v2h4v-2h-4z"/>
		<path id="l" d="m0 8h4v22h-4v-22z"/>
		<path id="p" d="m2 14h8v2h2v12h-2v2h-6v6h-4v-20h2v-2zm2 4v8h4v-8h-4z"/>
		<path id="r" d="m0 14h4v2h2v-2h6v4h-6v2h-2v10h-4v-16z"/>
		<path id="u" d="m0 14h4v12h4v-12h4v14h-2v2h-8v-2h-2v-14z"/>
	</defs>
	<g fill="rgba(0,0,0,0.3)">
		<g transform="translate(7,2)">
			<use href="#P" x="0"/>
			<use href="#u" x="14"/>
			<use href="#r" x="28"/>
			<use href="#p" x="42"/>
			<use href="#l" x="56"/>
			<use href="#e" x="62"/>
			<use href="#S" x="88"/>
			<use href="#e" x="102"/>
			<use href="#a" x="116"/>
			<use href="#l" x="130"/>
		</g>
		<g transform="translate(143,2)">
		</g>
	</g>
	<g>
		<g fill="#8867A5FF" transform="translate(5,0)">
				<use href="#P" x="0"/>
				<use href="#u" x="14"/>
				<use href="#r" x="28"/>
				<use href="#p" x="42"/>
				<use href="#l" x="56"/>
				<use href="#e" x="62"/>
				<use href="#S" x="88"/>
				<use href="#e" x="102"/>
				<use href="#a" x="116"/>
				<use href="#l" x="130"/>
		</g>
		<g fill="#FFFFFFFF" transform="translate(141,0)">
		</g>
	</g>
	<text font-family="m6x11plus,Courier New" fill="transparent">
		<tspan font-size="32" lengthAdjust="spacingAndGlyphs" x="4" y="28" textLength="1">{C:purple}</tspan><tspan font-size="32" xml:space="preserve" lengthAdjust="spacingAndGlyphs" x="5" y="28" textLength="136">Purple Seal</tspan><tspan font-size="32" lengthAdjust="spacingAndGlyphs" x="140" y="28" textLength="1">{}</tspan><tspan font-size="32" lengthAdjust="spacingAndGlyphs" x="141" y="28" textLength="0"></tspan>
	</text>
</svg>