<svg xmlns="http://www.w3.org/2000/svg" height="128" viewBox="0 0 94 40">
	<defs>
		<path id="H" d="m0 8h4v8h4v-8h4v22h-4v-10h-4v10h-4v-22z"/>
		<path id="a" d="m0 14h10v2h2v14h-10v-2h-2v-6h2v-2h6v-2h-8v-4zm4 10v2h4v-2h-4z"/>
		<path id="e" d="m2 14h8v2h2v8h-8v2h8v4h-10v-2h-2v-12h2v-2zm2 4v2h4v-2h-4z"/>
		<path id="r" d="m0 14h4v2h2v-2h6v4h-6v2h-2v10h-4v-16z"/>
		<path id="s" d="m2 14h10v4h-8v2h6v2h2v6h-2v2h-10v-4h8v-2h-6v-2h-2v-6h2v-2z"/>
		<path id="t" d="m2 8h4v6h6v4h-6v8h6v4h-8v-2h-2v-10h-2v-4h2v-6z"/>
	</defs>
	<g fill="rgba(0,0,0,0.3)">
		<g transform="translate(7,2)">
			<use href="#H" x="0"/>
			<use href="#e" x="14"/>
			<use href="#a" x="28"/>
			<use href="#r" x="42"/>
			<use href="#t" x="56"/>
			<use href="#s" x="70"/>
		</g>
		<g transform="translate(91,2)">
		</g>
	</g>
	<g>
		<g fill="#F03464FF" transform="translate(5,0)">
				<use href="#H" x="0"/>
				<use href="#e" x="14"/>
				<use href="#a" x="28"/>
				<use href="#r" x="42"/>
				<use href="#t" x="56"/>
				<use href="#s" x="70"/>
		</g>
		<g fill="#FFFFFFFF" transform="translate(89,0)">
		</g>
	</g>
	<text font-family="m6x11plus,Courier New" fill="transparent">
		<tspan font-size="32" lengthAdjust="spacingAndGlyphs" x="4" y="28" textLength="1">{C:hearts}</tspan><tspan font-size="32" lengthAdjust="spacingAndGlyphs" x="5" y="28" textLength="84">Hearts</tspan><tspan font-size="32" lengthAdjust="spacingAndGlyphs" x="88" y="28" textLength="1">{}</tspan><tspan font-size="32" lengthAdjust="spacingAndGlyphs" x="89" y="28" textLength="0"></tspan>
	</text>
</svg>