<svg xmlns="http://www.w3.org/2000/svg" height="128" viewBox="0 0 110 40">
	<defs>
		<path id="three" d="m2 8h8v2h2v6h-2v2h2v10h-2v2h-8v-2h-2v-4h4v2h4v-6h-4v-4h4v-4h-4v2h-4v-4h2v-2z"/>
		<path id="M" d="m0 8h14v2h2v20h-4v-18h-2v14h-4v-14h-2v18h-4v-22z"/>
		<path id="X" d="m0 8h4v6h2v2h2v-2h2v-6h4v8h-2v2h-2v2h2v2h2v8h-4v-6h-2v-2h-2v2h-2v6h-4v-8h2v-2h2v-2h-2v-2h-2v-8z"/>
		<path id="l" d="m0 8h4v22h-4v-22z"/>
		<path id="t" d="m2 8h4v6h6v4h-6v8h6v4h-8v-2h-2v-10h-2v-4h2v-6z"/>
		<path id="u" d="m0 14h4v12h4v-12h4v14h-2v2h-8v-2h-2v-14z"/>
	</defs>
	<g fill="rgba(0,0,0,0.3)">
		<g transform="translate(43,2)">
			<use href="#M" x="12"/>
			<use href="#u" x="30"/>
			<use href="#l" x="44"/>
			<use href="#t" x="50"/>
		</g>
	</g>
	<g>
		<path d="m8 0.0h28.0l4 4v28.0l-4 4h-28.0l-4-4v-28.0z" fill="#FE5F55FF"/>
	</g>
	<g>
		<g fill="#FFFFFFFF" transform="translate(5,0)">
				<use href="#X" x="3"/>
				<use href="#three" x="19"/>
		</g>
		<g fill="#4F6367FF" transform="translate(35,0)">
				<use href="#M" x="18"/>
				<use href="#u" x="36"/>
				<use href="#l" x="50"/>
				<use href="#t" x="56"/>
		</g>
	</g>
	<text font-family="m6x11plus,Courier New" fill="transparent">
		<tspan font-size="32" lengthAdjust="spacingAndGlyphs" x="10" y="28" textLength="1">{X:mult,C:white}</tspan><tspan font-size="32" lengthAdjust="spacingAndGlyphs" x="11" y="28" textLength="30">X3</tspan><tspan font-size="32" lengthAdjust="spacingAndGlyphs" x="40" y="28" textLength="1">{}</tspan><tspan font-size="32" xml:space="preserve" lengthAdjust="spacingAndGlyphs" x="41" y="28" textLength="64"> Mult</tspan>
	</text>
</svg>