<svg xmlns="http://www.w3.org/2000/svg" height="128" viewBox="0 0 140 40">
	<defs>
		<path id="period" d="m0 26h4v4h-4v-4z"/>
		<path id="one" d="m4 8h4v18h4v4h-12v-4h4v-12h-4v-4h4v-2z"/>
		<path id="five" d="m0 8h12v4h-8v4h6v2h2v10h-2v2h-10v-4h8v-6h-8v-12z"/>
		<path id="C" d="m2 8h10v4h-8v14h8v4h-10v-2h-2v-18h2v-2z"/>
		<path id="X" d="m0 8h4v6h2v2h2v-2h2v-6h4v8h-2v2h-2v2h2v2h2v8h-4v-6h-2v-2h-2v2h-2v6h-4v-8h2v-2h2v-2h-2v-2h-2v-8z"/>
		<path id="h" d="m0 8h4v6h6v2h2v14h-4v-12h-4v12h-4v-22z"/>
		<path id="i" d="m0 8h4v4h-4v-4zm0 6h4v16h-4v-16z"/>
		<path id="p" d="m2 14h8v2h2v12h-2v2h-6v6h-4v-20h2v-2zm2 4v8h4v-8h-4z"/>
		<path id="s" d="m2 14h10v4h-8v2h6v2h2v6h-2v2h-10v-4h8v-2h-6v-2h-2v-6h2v-2z"/>
	</defs>
	<g fill="rgba(0,0,0,0.3)">
		<g transform="translate(63,2)">
			<use href="#C" x="12"/>
			<use href="#h" x="26"/>
			<use href="#i" x="40"/>
			<use href="#p" x="46"/>
			<use href="#s" x="60"/>
		</g>
	</g>
	<g>
		<path d="m8 0.0h48.0l4 4v28.0l-4 4h-48.0l-4-4v-28.0z" fill="#009DFFFF"/>
	</g>
	<g>
		<g fill="#FFFFFFFF" transform="translate(5,0)">
			<use href="#X" x="3"/>
			<use href="#one" x="19"/>
			<use href="#period" x="33"/>
			<use href="#five" x="39"/>
		</g>
		<g fill="#4F6367FF" transform="translate(55,0)">
			<use href="#C" x="18"/>
			<use href="#h" x="32"/>
			<use href="#i" x="46"/>
			<use href="#p" x="52"/>
			<use href="#s" x="66"/>
		</g>
	</g>
	<text font-family="m6x11plus,Courier New" fill="transparent">
		<tspan font-size="32" lengthAdjust="spacingAndGlyphs" x="10" y="28" textLength="1">{X:chips,C:white}</tspan><tspan font-size="32" lengthAdjust="spacingAndGlyphs" x="11" y="28" textLength="50">X1.5</tspan><tspan font-size="32" lengthAdjust="spacingAndGlyphs" x="60" y="28" textLength="1">{}</tspan><tspan font-size="32" xml:space="preserve" lengthAdjust="spacingAndGlyphs" x="61" y="28" textLength="74"> Chips</tspan>
	</text>
</svg>