<svg xmlns="http://www.w3.org/2000/svg" height="128" viewBox="0 0 150 80">
	<defs>
		<path id="J" d="m0 8h12v20h-2v2h-8v-2h-2v-4h4v2h4v-14h-8v-4z"/>
		<path id="e" d="m2 14h8v2h2v8h-8v2h8v4h-10v-2h-2v-12h2v-2zm2 4v2h4v-2h-4z"/>
		<path id="k" d="m0 8h4v6h6v2h2v6h-2v2h2v6h-4v-4h-2v-2h-2v6h-4v-22zm4 10v2h4v-2h-4z"/>
		<path id="o" d="m2 14h8v2h2v12h-2v2h-8v-2h-2v-12h2v-2zm2 4v8h4v-8h-4z"/>
		<path id="r" d="m0 14h4v2h2v-2h6v4h-6v2h-2v10h-4v-16z"/>
	</defs>
	<g fill="rgba(0,0,0,0.3)">
		<g transform="translate(9,4) scale(2.0)">
			<use href="#J" x="0"/>
			<use href="#o" x="14"/>
			<use href="#k" x="28"/>
			<use href="#e" x="42"/>
			<use href="#r" x="56"/>
		</g>
	</g>
	<g>
		<g fill="#FFFFFFFF" transform="translate(5,0) scale(2.0)">
			<g>
				<g>
					<use href="#J" x="0"/>
					<animateMotion path="m0 0 a0.85 0.85 0 0 1 1.7 0" dur="2.4" begin="0.0" keyTimes="0;0.25;1" keyPoints="0;1;1" repeatCount="indefinite"/>
				</g>
				<animateMotion path="m0 0 a0.85 0.85 0 0 0 -1.7 0" dur="2.4" begin="0.0" keyTimes="0;0.25;1" keyPoints="0;1;1" repeatCount="indefinite"/>
			</g>
			<g>
				<g>
					<use href="#o" x="14"/>
					<animateMotion path="m0 0 a0.85 0.85 0 0 1 1.7 0" dur="2.4" begin="0.4" keyTimes="0;0.25;1" keyPoints="0;1;1" repeatCount="indefinite"/>
				</g>
				<animateMotion path="m0 0 a0.85 0.85 0 0 0 -1.7 0" dur="2.4" begin="0.4" keyTimes="0;0.25;1" keyPoints="0;1;1" repeatCount="indefinite"/>
			</g>
			<g>
				<g>
					<use href="#k" x="28"/>
					<animateMotion path="m0 0 a0.85 0.85 0 0 1 1.7 0" dur="2.4" begin="0.8" keyTimes="0;0.25;1" keyPoints="0;1;1" repeatCount="indefinite"/>
				</g>
				<animateMotion path="m0 0 a0.85 0.85 0 0 0 -1.7 0" dur="2.4" begin="0.8" keyTimes="0;0.25;1" keyPoints="0;1;1" repeatCount="indefinite"/>
			</g>
			<g>
				<g>
					<use href="#e" x="42"/>
					<animateMotion path="m0 0 a0.85 0.85 0 0 1 1.7 0" dur="2.4" begin="1.2" keyTimes="0;0.25;1" keyPoints="0;1;1" repeatCount="indefinite"/>
				</g>
				<animateMotion path="m0 0 a0.85 0.85 0 0 0 -1.7 0" dur="2.4" begin="1.2" keyTimes="0;0.25;1" keyPoints="0;1;1" repeatCount="indefinite"/>
			</g>
			<g>
				<g>
					<use href="#r" x="56"/>
					<animateMotion path="m0 0 a0.85 0.85 0 0 1 1.7 0" dur="2.4" begin="1.6" keyTimes="0;0.25;1" keyPoints="0;1;1" repeatCount="indefinite"/>
				</g>
				<animateMotion path="m0 0 a0.85 0.85 0 0 0 -1.7 0" dur="2.4" begin="1.6" keyTimes="0;0.25;1" keyPoints="0;1;1" repeatCount="indefinite"/>
			</g>
		</g>
	</g>
	<text font-family="m6x11plus,Courier New" fill="transparent">
		<tspan font-size="64" lengthAdjust="spacingAndGlyphs" x="4" y="56" textLength="1">{E:2,s:2}</tspan><tspan font-size="64" lengthAdjust="spacingAndGlyphs" x="5" y="56" textLength="140">Joker</tspan><tspan font-size="32" lengthAdjust="spacingAndGlyphs" x="144" y="48" textLength="1">{}</tspan>
	</text>
</svg>
