<svg xmlns="http://www.w3.org/2000/svg" height="128" viewBox="0 0 106 40">
	<defs>
		<path id="dollar" d="m4 8h4v4h4v4h-8v2h6v2h2v6h-2v2h-2v4h-4v-4h-4v-4h8v-2h-6v-2h-2v-6h2v-2h2v-4z"/>
		<path id="four" d="m0 8h4v10h4v-10h4v22h-4v-8h-6v-2h-2v-12z"/>
		<path id="E" d="m2 8h10v4h-8v4h6v4h-6v6h8v4h-10v-2h-2v-18h2v-2z"/>
		<path id="a" d="m0 14h10v2h2v14h-10v-2h-2v-6h2v-2h6v-2h-8v-4zm4 10v2h4v-2h-4z"/>
		<path id="n" d="m0 14h10v2h2v14h-4v-12h-4v12h-4v-16z"/>
		<path id="r" d="m0 14h4v2h2v-2h6v4h-6v2h-2v10h-4v-16z"/>
	</defs>
	<g fill="rgba(0,0,0,0.3)">
		<g transform="translate(7,2)">
			<use href="#E" x="0"/>
			<use href="#a" x="14"/>
			<use href="#r" x="28"/>
			<use href="#n" x="42"/>
		</g>
		<g transform="translate(75,2)">
			<use href="#dollar" x="0"/>
			<use href="#four" x="14"/>
		</g>
		<g transform="translate(103,2)">
		</g>
	</g>
	<g>
		<g fill="#4F6367FF" transform="translate(5,0)">
				<use href="#E" x="0"/>
				<use href="#a" x="14"/>
				<use href="#r" x="28"/>
				<use href="#n" x="42"/>
		</g>
		<g fill="#F3B958FF" transform="translate(73,0)">
				<use href="#dollar" x="0"/>
				<use href="#four" x="14"/>
		</g>
		<g fill="#4F6367FF" transform="translate(101,0)">
		</g>
	</g>
	<text font-family="m6x11plus,Courier New" fill="transparent">
		<tspan font-size="32" lengthAdjust="spacingAndGlyphs" x="4" y="28" textLength="1">{}</tspan><tspan font-size="32" xml:space="preserve" lengthAdjust="spacingAndGlyphs" x="5" y="28" textLength="68">Earn </tspan><tspan font-size="32" lengthAdjust="spacingAndGlyphs" x="72" y="28" textLength="1">{C:money}</tspan><tspan font-size="32" lengthAdjust="spacingAndGlyphs" x="73" y="28" textLength="28">$4</tspan><tspan font-size="32" lengthAdjust="spacingAndGlyphs" x="100" y="28" textLength="1">{}</tspan><tspan font-size="32" lengthAdjust="spacingAndGlyphs" x="101" y="28" textLength="0"></tspan>
	</text>
</svg>