<svg xmlns="http://www.w3.org/2000/svg" height="128" viewBox="0 0 222 80">
	<defs>
		<path id="exclam" d="m0 8h4v16h-4v-16zm0 18h4v4h-4v-4z"/>
		<path id="I" d="m0 8h12v4h-4v14h4v4h-12v-4h4v-14h-4v-4z"/>
		<path id="N" d="m0 8h10v2h2v20h-4v-18h-4v18h-4v-22z"/>
		<path id="O" d="m2 8h8v2h2v18h-2v2h-8v-2h-2v-18h2v-2zm2 4v14h4v-14h-4z"/>
		<path id="U" d="m0 8h4v18h4v-18h4v20h-2v2h-8v-2h-2v-20z"/>
		<path id="W" d="m0 8h4v18h2v-10h4v10h2v-18h4v20h-2v2h-12v-2h-2v-20z"/>
		<path id="Y" d="m0 8h4v8h4v-8h4v10h-2v2h-2v10h-4v-10h-2v-2h-2v-10z"/>
	</defs>
	<g fill="rgba(0,0,0,0.3)">
		<g transform="translate(9,4) scale(2.0)">
			<use href="#Y" x="0"/>
			<use href="#O" x="14"/>
			<use href="#U" x="28"/>
			<use href="#W" x="54"/>
			<use href="#I" x="72"/>
			<use href="#N" x="86"/>
			<use href="#exclam" x="100"/>
		</g>
	</g>
	<g>
		<g transform="translate(5,0) scale(2.0)">
			<animate attributeName="fill" dur="4s" repeatCount="indefinite" values="#e5d7ec; #fffec6; #ffffb3; #ffffbc; #e5f3de; #c1ccff; #b2b4ff; #c1b8ff; #e5d7ec; "/>
			<g>
				<g>
					<use href="#Y" x="0"/>
					<use href="#N" x="86"/>
					<animateMotion path="m0 0 a0.85 0.85 0 0 1 1.7 0 a0.85 0.85 0 0 1 -1.7 0" dur="2.4" begin="-2.4" repeatCount="indefinite"/>
				</g>
				<animateMotion path="m0 0 a0.85 0.85 0 0 0 -1.7 0 a0.85 0.85 0 0 0 1.7 0" dur="2.4" begin="-2.4" repeatCount="indefinite"/>
			</g>
			<g>
				<g>
					<use href="#O" x="14"/>
					<use href="#exclam" x="100"/>
					<animateMotion path="m0 0 a0.85 0.85 0 0 1 1.7 0 a0.85 0.85 0 0 1 -1.7 0" dur="2.4" begin="-2.0" repeatCount="indefinite"/>
				</g>
				<animateMotion path="m0 0 a0.85 0.85 0 0 0 -1.7 0 a0.85 0.85 0 0 0 1.7 0" dur="2.4" begin="-2.0" repeatCount="indefinite"/>
			</g>
			<g>
				<g>
					<use href="#U" x="28"/>
					<animateMotion path="m0 0 a0.85 0.85 0 0 1 1.7 0 a0.85 0.85 0 0 1 -1.7 0" dur="2.4" begin="-1.6" repeatCount="indefinite"/>
				</g>
				<animateMotion path="m0 0 a0.85 0.85 0 0 0 -1.7 0 a0.85 0.85 0 0 0 1.7 0" dur="2.4" begin="-1.6" repeatCount="indefinite"/>
			</g>
			<g>
				<g>
					<animateMotion path="m0 0 a0.85 0.85 0 0 1 1.7 0 a0.85 0.85 0 0 1 -1.7 0" dur="2.4" begin="-1.2" repeatCount="indefinite"/>
				</g>
				<animateMotion path="m0 0 a0.85 0.85 0 0 0 -1.7 0 a0.85 0.85 0 0 0 1.7 0" dur="2.4" begin="-1.2" repeatCount="indefinite"/>
			</g>
			<g>
				<g>
					<use href="#W" x="54"/>
					<animateMotion path="m0 0 a0.85 0.85 0 0 1 1.7 0 a0.85 0.85 0 0 1 -1.7 0" dur="2.4" begin="-0.8" repeatCount="indefinite"/>
				</g>
				<animateMotion path="m0 0 a0.85 0.85 0 0 0 -1.7 0 a0.85 0.85 0 0 0 1.7 0" dur="2.4" begin="-0.8" repeatCount="indefinite"/>
			</g>
			<g>
				<g>
					<use href="#I" x="72"/>
					<animateMotion path="m0 0 a0.85 0.85 0 0 1 1.7 0 a0.85 0.85 0 0 1 -1.7 0" dur="2.4" begin="-0.4" repeatCount="indefinite"/>
				</g>
				<animateMotion path="m0 0 a0.85 0.85 0 0 0 -1.7 0 a0.85 0.85 0 0 0 1.7 0" dur="2.4" begin="-0.4" repeatCount="indefinite"/>
			</g>
		</g>
	</g>
	<text font-family="m6x11plus,Courier New" fill="transparent">
		<tspan font-size="64" lengthAdjust="spacingAndGlyphs" x="4" y="56" textLength="1">{E:1,C:edition,s:2}</tspan><tspan font-size="64" xml:space="preserve" lengthAdjust="spacingAndGlyphs" x="5" y="56" textLength="212">YOU WIN!</tspan><tspan font-size="32" lengthAdjust="spacingAndGlyphs" x="216" y="48" textLength="1">{}</tspan>
	</text>
</svg>