<svg xmlns="http://www.w3.org/2000/svg" height="128" viewBox="0 0 76 40">
	<defs>
		<path id="D" d="m0 8h10v2h2v18h-2v2h-10v-22zm4 4v14h4v-14h-4z"/>
		<path id="E" d="m2 8h10v4h-8v4h6v4h-6v6h8v4h-10v-2h-2v-18h2v-2z"/>
		<path id="I" d="m0 8h12v4h-4v14h4v4h-12v-4h4v-14h-4v-4z"/>
		<path id="W" d="m0 8h4v18h2v-10h4v10h2v-18h4v20h-2v2h-12v-2h-2v-20z"/>
	</defs>
	<g>
		<path d="m8 0.0h58.0l4 4v28.0l-4 4h-58.0l-4-4v-28.0z" fill="#EAC058FF"/>
	</g>
	<g>
		<g fill="#4F6367FF" transform="translate(5,0)">
			<use href="#W" x="3"/>
			<use href="#I" x="21"/>
			<use href="#D" x="35"/>
			<use href="#E" x="49"/>
		</g>
	</g>
	<text font-family="m6x11plus,Courier New" fill="transparent">
		<tspan font-size="32" lengthAdjust="spacingAndGlyphs" x="10" y="28" textLength="1">{X:gold}</tspan><tspan font-size="32" lengthAdjust="spacingAndGlyphs" x="11" y="28" textLength="60">WIDE</tspan><tspan font-size="32" lengthAdjust="spacingAndGlyphs" x="70" y="28" textLength="1">{}</tspan>
	</text>
</svg>